<svg xmlns="http://www.w3.org/2000/svg" width="48" height="48" viewBox="0 0 48 48">
    <g data-name="Group 7852" transform="translate(-4581.5 5590)">
        <circle data-name="Ellipse 899" cx="24" cy="24" r="24" transform="translate(4581.5 -5590)" style="fill:#e4452e"/>
        <path d="M444.748 672.763c-.288-.15-1.546-1.265-4.675-4.136a31.965 31.965 0 0 1-5.526-6.042 11.184 11.184 0 0 1-2-5 7.249 7.249 0 0 1 5.377-7.45 8.383 8.383 0 0 1 2.877-.09 7.781 7.781 0 0 1 3.98 2.062l.486.474.485-.474a7.725 7.725 0 0 1 3.824-2.032 8.4 8.4 0 0 1 2.6-.036 7.539 7.539 0 0 1 5.532 4.921c.893 2.661-.144 5.88-3.045 9.41-1.235 1.5-2.763 2.979-7.462 7.223-1.506 1.356-1.806 1.5-2.453 1.17zm2.523-7.624a2.111 2.111 0 0 0 1.007-1.325 1.376 1.376 0 0 0-.27-1.007 5.361 5.361 0 0 0-.653-.539 2.186 2.186 0 0 1-.983-1.169 2.238 2.238 0 0 0-.354-.617 1.077 1.077 0 0 0-1.594.078 5.341 5.341 0 0 0-.306.617 2.055 2.055 0 0 1-.965 1.109c-.569.4-.8.677-.881 1.031a1.811 1.811 0 0 0 1.253 1.93c.084.024.905.042 1.828.036 1.594-.012 1.69-.018 1.918-.144zm-5.209-5.149a1.508 1.508 0 0 0 .653-.923 1.356 1.356 0 0 0-.7-1.379 1.511 1.511 0 0 0-1.187 0 1.353 1.353 0 0 0-.7 1.367 1.332 1.332 0 0 0 .839 1.019 1.7 1.7 0 0 0 1.095-.083zm7.672 0a1.508 1.508 0 0 0 .653-.923 1.356 1.356 0 0 0-.7-1.379 1.511 1.511 0 0 0-1.187 0 1.353 1.353 0 0 0-.7 1.367 1.332 1.332 0 0 0 .839 1.019 1.7 1.7 0 0 0 1.095-.083zm-3.878-2.541a1.356 1.356 0 0 0 .7-1.379 1.494 1.494 0 0 0-.659-.923 1.636 1.636 0 0 0-1.259 0 1.494 1.494 0 0 0-.659.923 1.381 1.381 0 0 0 .677 1.379 1.583 1.583 0 0 0 1.2 0z" transform="translate(4160.239 -6224.957)" style="fill:#fff" data-name="Group 26531"/>
    </g>
</svg>
