<svg xmlns="http://www.w3.org/2000/svg" width="20" height="20" viewBox="0 0 20 20"><path d="M87.5 77.5a10 10 0 1 0-11.562 9.879v-6.986H73.4V77.5h2.537v-2.2a3.528 3.528 0 0 1 3.775-3.89 15.256 15.256 0 0 1 2.241.2v2.46h-1.26a1.443 1.443 0 0 0-1.627 1.562V77.5h2.774l-.44 2.893h-2.333v6.986A10 10 0 0 0 87.5 77.5z" transform="translate(-67.5 -67.5)" class="facebook-icon"></path><path d="m183.095 147.786.444-2.893h-2.773v-1.874a1.446 1.446 0 0 1 1.627-1.562h1.26V139a15.257 15.257 0 0 0-2.241-.2 3.528 3.528 0 0 0-3.775 3.89v2.2H175.1v2.893h2.537v6.986a9.792 9.792 0 0 0 1.562.121 10.474 10.474 0 0 0 1.562-.121v-6.986z" transform="translate(-169.204 -134.893)" style="fill: rgb(255, 255, 255);"></path></svg>