<svg xmlns="http://www.w3.org/2000/svg" width="18" height="18" viewBox="0 0 18 18" class="instagram-icon-black"><path data-name="Exclusion 32" d="M12.638 18H5.362A5.368 5.368 0 0 1 0 12.638V5.362A5.368 5.368 0 0 1 5.362 0h7.275A5.368 5.368 0 0 1 18 5.362v7.275A5.368 5.368 0 0 1 12.638 18zM5.362 1.811a3.556 3.556 0 0 0-3.551 3.551v7.275a3.556 3.556 0 0 0 3.552 3.552h7.275a3.556 3.556 0 0 0 3.552-3.552V5.362a3.556 3.556 0 0 0-3.552-3.552zM9 13.655A4.655 4.655 0 1 1 13.655 9 4.661 4.661 0 0 1 9 13.655zm0-7.5A2.845 2.845 0 1 0 11.845 9 2.848 2.848 0 0 0 9 6.155zm4.664-.66A1.116 1.116 0 1 1 14.78 4.38a1.117 1.117 0 0 1-1.116 1.12z" class="instagram-icon"></path></svg>