<svg xmlns="http://www.w3.org/2000/svg" width="48" height="48" viewBox="0 0 48 48">
    <g data-name="Group 26534" transform="translate(-14342 10035)">
        <circle data-name="Ellipse 899" cx="24" cy="24" r="24" transform="translate(14342 -10035)" style="fill:#e4452e"/>
        <g data-name="Group 26529">
            <path d="M354.063 550.5a4.846 4.846 0 0 1-3.724-3.023 5.507 5.507 0 0 1-.339-1.826 1.03 1.03 0 0 1 .484-1.058.694.694 0 0 1 .55-.121c.647.048.895.363.967 1.251a2.979 2.979 0 0 0 .9 2.086 2.843 2.843 0 0 0 1.07.6l.127.042.03-2.225a16.965 16.965 0 0 1 .133-2.8 8.89 8.89 0 0 1 4.232-6.16c.333-.23 1.173-.762 1.868-1.185a13.308 13.308 0 0 0 2.939-2.181 4.206 4.206 0 0 0 .8-1.106c.345-.677.357-.768.073-.816a1.088 1.088 0 0 1-.671-.538 2.54 2.54 0 0 1 .254-1.856 11.865 11.865 0 0 1 1.179-2.195 2.414 2.414 0 0 1 1.6-.75 1.275 1.275 0 0 0 .8-.248 2.455 2.455 0 0 1 1.789-.46 2.613 2.613 0 0 1 1.2.139 2.467 2.467 0 0 1 1.106.871l.175.266 1.27.381c1.391.417 1.536.478 1.687.725.181.314.127.5-.514 1.747-.707 1.372-.81 1.517-1.185 1.741-.266.151-.351.169-1.167.2-1 .042-1.209.109-1.505.459-.453.556-.671 2.092-.671 4.849a4.829 4.829 0 0 1-.719 3.18 1.08 1.08 0 0 0-.187.369c0 .085 1.4 7.206 1.493 7.575.03.115.073.133.351.133a1.017 1.017 0 0 1 .907 1.608c-.3.393-.23.387-3.736.387h-3.168l-.042-.429a1.714 1.714 0 0 0-.314-.967c-.079-.085-.073-.157.03-.6a8.717 8.717 0 0 0 .254-2.182 13.443 13.443 0 0 0-.187-2.195c-.042-.2-.036-.248.048-.3a4.642 4.642 0 0 0 .441-.381 2.22 2.22 0 0 0 .568-2.533c-.085-.2-.085-.272 0-.713.073-.375.206-1.632.212-1.983 0-.091-.532-.048-.9.067a2.788 2.788 0 0 0-1.167.719l-.2.224-.889-.006h-.883l-.32-.29a3.091 3.091 0 0 0-1.56-.744c-.357-.036-.369-.03-.369.109a19.111 19.111 0 0 0 .212 1.971c.079.417.079.453-.042.725a1.713 1.713 0 0 0-.133.774 2 2 0 0 0 .683 1.608l.4.4-.466.26c-1.874 1.034-2.708 2.805-2.708 5.749v.719l-1.372-.006c-.757-.003-1.519-.027-1.694-.057z" transform="translate(14003.242 -10549.279)" style="fill:#fff"/>
            <path d="M2054.851 3080.076a.451.451 0 0 1-.142-.59.457.457 0 0 1 .862.212.451.451 0 0 1-.72.378z" transform="translate(12308.649 -13087.513)" style="fill:#fff"/>
            <path d="M2570.328 3080.613a.477.477 0 0 1-.118-.755.448.448 0 0 1 .744.183.465.465 0 0 1-.626.572z" transform="translate(11796.27 -13087.997)" style="fill:#fff"/>
        </g>
    </g>
</svg>
