<svg xmlns="http://www.w3.org/2000/svg" width="48" height="48" viewBox="0 0 48 48">
  <defs>
    <style>
      .cls-1 {
        fill: #e4452e;
      }

      .cls-2 {
        fill: #fff;
      }

      .cls-3, .cls-5 {
        fill: none;
      }

      .cls-3 {
        stroke: #fff;
        stroke-width: 2px;
      }

      .cls-4 {
        stroke: none;
      }
    </style>
  </defs>
  <g id="Group_7852" data-name="Group 7852" transform="translate(-4581.5 5590)">
    <circle id="Ellipse_899" data-name="Ellipse 899" class="cls-1" cx="24" cy="24" r="24" transform="translate(4581.5 -5590)"/>
    <g id="loMwrakjX7Zqhp5VGlNuJB" transform="translate(4593.5 -5576.796)">
      <g id="Group_26530" data-name="Group 26530" transform="translate(0)">
        <path id="pDOGjyMoF" class="cls-2" d="M432.993,666.563a1.209,1.209,0,0,1-.879-.682c-.1-.186-.107-.44-.124-5.168l-.017-4.977h-.141a1.23,1.23,0,0,1-.975-.828,6.731,6.731,0,0,1,.017-1.877c.034-.107.581-.964,1.206-1.9l1.133-1.7.017-1.826.017-1.826.152-.231a1.562,1.562,0,0,1,.423-.389l.271-.158h17.415l.27.158a1.562,1.562,0,0,1,.423.389l.152.231.017,1.826.017,1.826,1.133,1.7c.626.936,1.172,1.792,1.206,1.9a6.731,6.731,0,0,1,.017,1.877,1.23,1.23,0,0,1-.975.828h-.141l-.017,4.977c-.017,4.729-.023,4.982-.124,5.168a1.263,1.263,0,0,1-.569.581l-.225.124-9.75.006C437.575,666.6,433.1,666.586,432.993,666.563Zm18.26-6.543v-4.227H434.346v8.454h16.908ZM437.44,649.61a1.215,1.215,0,0,0,.558-1.093,1.7,1.7,0,0,0-.135-.535,1.418,1.418,0,0,0-.868-.614,1.275,1.275,0,0,0-1.3.654,1.5,1.5,0,0,0-.023,1.082A1.228,1.228,0,0,0,437.44,649.61Zm3.607,0a1.215,1.215,0,0,0,.558-1.093,1.7,1.7,0,0,0-.135-.535,1.418,1.418,0,0,0-.868-.614,1.275,1.275,0,0,0-1.3.654,1.5,1.5,0,0,0-.023,1.082A1.228,1.228,0,0,0,441.047,649.61Z" transform="translate(-430.8 -645)"/>
        <g id="Rectangle_7333" data-name="Rectangle 7333" class="cls-3" transform="translate(12.936 12.512)">
          <rect class="cls-4" width="6" height="9" rx="1"/>
          <rect class="cls-5" x="1" y="1" width="4" height="7"/>
        </g>
        <g id="Rectangle_7334" data-name="Rectangle 7334" class="cls-3" transform="translate(5.064 12.512)">
          <rect class="cls-4" width="6" height="9" rx="1"/>
          <rect class="cls-5" x="1" y="1" width="4" height="7"/>
        </g>
      </g>
    </g>
  </g>
</svg>
